<svg xmlns="http://www.w3.org/2000/svg" shape-rendering="geometricPrecision" text-rendering="geometricPrecision" image-rendering="optimizeQuality" fill-rule="evenodd" clip-rule="evenodd" viewBox="0 0 512 512"><circle fill="#FFD337" transform="matrix(1.93594 -1.93594 1.93594 1.93594 256 256)" r="93.504"/><path fill="#40270E" fill-rule="nonzero" d="M424.758 310.492c-2.024 73.87-45.255 121.084-100.242 142.047-22.039 8.402-46.035 12.505-69.998 12.343-23.939-.164-47.87-4.609-69.807-13.309-54.533-21.627-96.81-69.124-97.488-142.057-.055-7.23 5.759-13.138 12.989-13.193a13.12 13.12 0 014.102.623c50.751 16.302 102.197 24.597 153.291 24.627 50.567.027 100.878-8.027 149.925-24.396 6.859-2.294 14.285 1.406 16.58 8.266.561 1.676.762 3.387.648 5.049zm-229.313-54.26c-28.056-21.84-54.856-21.512-80.409-.241-11.519 9.591-16.642 4.237-11.442-8.792 5.176-12.956 11.67-23.981 19.893-32.479 34.722-35.885 66.457-3.825 81.648 31.843 4.853 11.392 2.33 19.024-9.69 9.669zm202.983 0c-28.059-21.84-54.859-21.512-80.409-.241-11.519 9.591-16.645 4.237-11.442-8.792 5.176-12.956 11.67-23.981 19.893-32.479 34.722-35.885 66.454-3.825 81.648 31.843 4.851 11.392 2.327 19.024-9.69 9.669zm-51.873-140.401c-5.956-.514-11.184.206-14.909 3.45-8.129 7.065-3.268 10.972 4.718 13.607 19.049 6.29 23.875 4.559 42.68 16.215 10.013 6.203 19.146 13.4 27.381 21.596 3.579 3.557 14.831 19.583 19.587 15.217 4.873-4.453-5.322-19.111-8.014-23.236-17.618-26.976-41.373-42.704-71.443-46.849zm-181.109 0c5.956-.514 11.184.206 14.909 3.45 8.777 7.626 2.414 11.568-6.674 14.21-20.787 6.043-26.129 5.591-45.619 18.684a148.872 148.872 0 00-22.486 18.524c-3.564 3.572-14.832 19.583-19.588 15.217-4.872-4.453 5.323-19.111 8.015-23.236 17.618-26.976 41.373-42.704 71.443-46.849z"/><path fill="#F2F4F3" d="M411.687 309.6c-.516 21.16-4.726 33.689-11.786 50.103-93.334 14.638-195.016 14.61-288.34-.087-6.998-16.468-11.052-29.035-11.248-50.202 103.541 33.279 210.106 33.987 311.374.186z"/><path fill="#40270E" fill-rule="nonzero" d="M165.364 114.887c3.053-.263 5.943-.206 8.561.335 2.677.554 5.064 1.615 7.051 3.346 4.855 4.219 5.441 7.544 3.506 10.239-1.773 2.469-5.818 4.22-10.537 5.591-4.125 1.199-7.535 2.115-10.582 2.935-12.728 3.42-19.198 5.163-34.777 15.626a149.456 149.456 0 00-11.64 8.668 147.773 147.773 0 00-10.702 9.738c-.718.72-1.763 1.959-2.997 3.432-1.339 1.602-2.916 3.477-4.6 5.312-4.656 5.072-9.986 9.542-13.297 6.502-5.163-4.723 3.857-18.385 7.292-23.581l.571-.864c8.879-13.595 19.317-24.368 31.325-32.258 12.02-7.903 25.61-12.925 40.782-15.014l.044-.007zm8.183 2.183c-2.408-.499-5.121-.546-8.019-.295-14.879 2.054-28.193 6.973-39.957 14.707-11.784 7.746-22.041 18.336-30.778 31.712l-.576.874c-3.189 4.828-11.571 17.519-7.593 21.152 2.156 1.977 6.614-2.011 10.632-6.387 1.622-1.766 3.199-3.643 4.543-5.245 1.286-1.523 2.364-2.807 3.109-3.554a150.138 150.138 0 0110.841-9.863 151.74 151.74 0 0111.789-8.781c15.842-10.642 22.414-12.413 35.338-15.885a518.58 518.58 0 0010.542-2.92c4.364-1.27 8.054-2.821 9.535-4.881 1.321-1.84.7-4.311-3.217-7.711-1.733-1.507-3.832-2.436-6.189-2.923z"/><path fill="#4BA9FF" fill-rule="nonzero" d="M414.312 152.622l32.14-88.096c2.374-6.549 9.608-9.934 16.157-7.56a12.591 12.591 0 017.776 8.213l23.653 65.642c9.825 27.265 24.443 57.389-4.766 80.906-9.33 7.508-21.425 11.3-33.219 11.179-12.102-.13-24.098-4.33-32.852-12.791-12.117-11.717-17.919-30.78-8.988-57.195l.099-.298z"/><path fill="#4BA9FF" d="M426.17 156.921l32.14-88.097 33.237 92.242c18.493 64.27-89.914 68.423-65.377-4.145z"/><path fill="#FB3939" fill-rule="nonzero" d="M347.436 441.852a173.61 173.61 0 01-22.92 10.687c-13.548 5.166-27.838 8.702-42.401 10.627a225.745 225.745 0 01-50.356.263c-16.188-1.966-32.085-5.92-47.048-11.856a174.477 174.477 0 01-20.291-9.586c24.756-17.345 56.707-27.798 91.6-27.798 34.807 0 66.69 10.398 91.416 27.663z"/></svg>